<svg id="Layer_1" data-name="Layer 1" xmlns="http://www.w3.org/2000/svg" viewBox="0 0 1920 1080"><defs><style>.cls-1{fill:none;}.cls-2{fill:#fff3f3;}</style></defs><path class="cls-1" d="M1485.33,663.37c-88.15,17.43-129.86,42.23-174,68.5-47.9,28.48-97.44,57.94-211.4,77.62-75.86,13.1-158.18,27.32-250.08,27.32a830.43,830.43,0,0,1-167.28-16.73c-12.3-2.51-24.24-5.24-35.78-7.88C595.5,800.49,547.08,789.43,481.56,801c-90.52,16-153,64.26-190.37,93.08-64.44,49.73-117.28,112.12-157.58,185.9h86.85q7.32-11.26,15.13-22.08A507.6,507.6,0,0,1,336.75,953.14c43.18-33.33,90.93-66.85,157.8-78.69,48.3-8.54,81.35-2,135.61,10.45l.41.1c11.22,2.56,23.94,5.46,37.06,8.14,177,36.13,324,10.72,442.23-9.69l2.74-.47c127.55-22,185.6-56.56,236.83-87l.87-.52c39.68-23.6,74-44,149.5-58.91,83.17-16.45,170.29-16.83,258.94-1.14A833.44,833.44,0,0,1,1920,781.31V701.69q-15.32-5.52-31.87-10.85C1750.84,646.92,1615.32,637.68,1485.33,663.37Z"/><path class="cls-1" d="M213.46,277.75c67.26-3.84,130.34-19,187.51-45,47.28-21.53,64-37.68,89.22-62.11l1.61-1.56c40.45-39.12,90.8-87.81,208.81-138.15L705.13,29c21.44-9.15,44.66-19,69.71-29H593.24C515.18,42.72,472.86,83.64,440,115.46l-2.73,2.63c-21.65,21-31.53,30.54-67.17,46.77C321.33,187.06,267.21,200,209.21,203.3c-10.3.59-20.39.85-30.19.85-84.74,0-148.63-19.82-156.37-22.33l-1.11-.37q-11-3.9-21.54-8.3v79.72C17.09,258.38,103.59,284,213.46,277.75Z"/><path class="cls-1" d="M1908.09,1027.71c-8.25-5-83.62-49.44-189-68.09-60.78-10.76-119.69-10.66-175.1.3-37.2,7.35-46.34,12.8-73.46,29l-4.68,2.78c-42.52,25.29-101,60.07-196,88.32h192c14.6-8,28.53-16.15,42.1-24.22l7-4.16c20.66-12.37,22.82-13.66,47.53-18.55,46.32-9.15,96-9.16,147.64,0a533.34,533.34,0,0,1,142.14,47H1920v-44.36q-5.61-3.87-11.41-7.62Z"/><path class="cls-1" d="M1558.62,1034.05c-24.55,4.86-26.7,6.14-47.21,18.43l-7,4.16c-13.09,7.78-26.52,15.6-40.55,23.36h381.85c-27.64-13.56-78.27-35.07-139.86-46C1654.36,1024.91,1604.81,1024.92,1558.62,1034.05Z"/><path class="cls-1" d="M217.77,353.2c76.63-4.38,148.81-21.77,214.52-51.7,59.1-26.91,83.3-50.31,111.31-77.4l.74-.72c37.85-36.61,80.76-78.1,185.92-123l2.52-1.07C829.21,58.21,949.22,7,1107.93,2.13c11.76-.37,23.14-.45,33.17-.53h.37c18.49-.14,34.08-.38,48.47-1.6H777.56c-25.94,10.23-49.93,20.47-72,29.9L701,31.83c-117.84,50.26-168.11,98.88-208.51,138l-1.6,1.56c-25.33,24.5-42.07,40.69-89.5,62.3C344.1,259.72,280.9,274.9,213.52,278.75c-11.85.68-23.43,1-34.69,1C86.23,279.73,15.91,259,0,253.92v77.57C40,342,121.26,358.71,217.77,353.2Z"/><path class="cls-1" d="M463.62,370.28C534.56,338,564.83,308.7,596.87,277.71c34.77-33.63,70.72-68.4,163-107.78,96.51-41.16,205.9-87.82,350.35-92.27,10.88-.33,21.51-.41,31.78-.49,45.63-.35,88.72-.67,141.72-23.54A314.77,314.77,0,0,0,1367.51,0H1199.72c-17.14,2.1-35.51,2.43-58.24,2.6h-.37c-10,.08-21.4.16-33.15.52C949.44,8,829.53,59.16,733.17,100.27l-2.52,1.07C625.66,146.13,582.82,187.55,545,224.1l-.74.72C516.21,252,492,275.42,432.71,302.41c-65.83,30-138.13,47.41-214.88,51.79-13.12.75-26,1.09-38.46,1.09A723,723,0,0,1,0,332.52v76.85A794.28,794.28,0,0,0,118,427.5C242.72,437.18,359,417.93,463.62,370.28Z"/><path class="cls-1" d="M174.34,1013.65A583,583,0,0,1,290.58,893.31C328,864.43,390.63,816.1,481.38,800c65.73-11.63,114.25-.55,165.61,11.19,11.54,2.63,23.47,5.36,35.76,7.87,163,33.27,297.92,10,417-10.59C1213.52,788.86,1263,759.45,1310.8,731c44.24-26.31,86-51.16,174.34-68.62,71.3-14.09,145.49-17.61,220.51-10.45a873.69,873.69,0,0,1,182.78,37.95q16.39,5.25,31.57,10.74V0H1369a316.2,316.2,0,0,1-84.87,54.55c-53.19,23-96.38,23.27-142.11,23.62-10.27.08-20.89.16-31.76.49C966,83.1,856.73,129.72,760.3,170.85c-92.14,39.31-128,74-162.73,107.58-32.11,31.05-62.44,60.38-133.54,92.76-57.4,26.14-119.35,43.92-184.14,52.85a739.49,739.49,0,0,1-101,6.83q-30.27,0-60.93-2.38A794.31,794.31,0,0,1,0,410.39V1080H132.52A626.05,626.05,0,0,1,174.34,1013.65Z"/><path class="cls-1" d="M23,180.87c8.61,2.79,87,27.09,186.19,21.43C267,199,321,186.1,369.65,164c35.48-16.16,45.32-25.69,66.89-46.58l2.72-2.63C472,83.09,514,42.46,591.15,0H456c-29,22.86-50.67,43.8-68.6,61.13l-4.31,4.18c-17,16.48-20.49,19.9-44.37,30.78-40.18,18.3-85.21,29-133.84,31.76-8.8.5-17.44.73-25.83.73C104.7,128.58,48.64,110.8,46,110A355.79,355.79,0,0,1,0,89.76v82.31c7.12,3,14.39,5.8,21.86,8.44Z"/><path class="cls-1" d="M204.85,126.85c48.49-2.76,93.4-13.42,133.48-31.67,23.72-10.8,27.23-14.21,44.09-30.59l4.31-4.18C404.47,43.26,425.86,22.58,454.41,0H341.94l-7.05,6.81c-2.85,2.75-5.12,5-7,6.81C319.33,22,319.33,22,312.1,25.22l-4.68,2.09C275.78,41.72,239.84,50.16,200.6,52.4c-7.44.43-14.72.62-21.8.62C120.26,53,75.57,40,70.13,38.32A290.2,290.2,0,0,1,0,1.17V88.63A353.61,353.61,0,0,0,46.35,109C49.23,109.94,118.17,131.81,204.85,126.85Z"/><path class="cls-1" d="M1514.65,811.65c-62.63,12.38-88.46,27.74-124.21,49l-1.87,1.11C1334.46,894,1267.12,934,1125.63,958.43l-5,.86c-74,12.78-165.23,28.55-270.66,28.55a982.7,982.7,0,0,1-197.68-19.67c-14-2.87-27.12-5.86-38.65-8.5l-.55-.12c-51.74-11.82-72.74-15.45-105.21-9.7C458,958.68,422.07,984,383.53,1013.76A426.15,426.15,0,0,0,315.15,1080H420.07q4.44-3.68,9-7.21c37.09-28.62,61.47-44.14,91.8-49.51,16.88-3,25.25-2.54,75.61,9l.83.19c11.21,2.56,25.17,5.75,40.07,8.79,205,41.86,372.1,13,494.09-8.13l6.83-1.19c155.07-26.77,232.11-72.59,288.36-106l3.09-1.84c31.77-18.91,49.27-29.33,99.34-39.23,64.74-12.8,133.14-13,203.29-.58a683.38,683.38,0,0,1,187.6,62.7V864.46a762.12,762.12,0,0,0-174.61-53.67C1666.12,796.76,1588.48,797.05,1514.65,811.65Z"/><path class="cls-1" d="M1529.3,885.78c-49.9,9.87-67.34,20.25-99,39.11l-3.09,1.84c-56.32,33.49-133.45,79.36-288.7,106.17l-6.83,1.18c-58.77,10.17-131.91,22.81-215,27.51-97.28,5.49-188.7-.85-279.49-19.38-14.91-3-28.87-6.23-40.09-8.8l-.84-.19c-50.17-11.46-58.49-11.91-75.2-9-30.13,5.33-54.41,20.79-91.37,49.31q-4.08,3.15-8.05,6.42H1266.3c96.78-28.39,156-63.63,199-89.18L1470,988c27.24-16.24,36.42-21.71,73.79-29.1,55.53-11,114.56-11.08,175.46-.31,105.59,18.69,181.12,63.21,189.38,68.23l.51.31q5.54,3.57,10.88,7.25V948.05a681.48,681.48,0,0,0-187.77-62.85C1662.2,872.81,1593.93,873,1529.3,885.78Z"/><path class="cls-1" d="M1500,737.51c-75.38,14.9-109.58,35.24-149.18,58.79l-.87.52c-51.3,30.51-109.44,65.08-237.17,87.14l-2.74.47c-118.27,20.43-265.45,45.85-442.6,9.69-13.13-2.68-25.86-5.59-37.08-8.15l-.41-.09c-54.14-12.37-87.11-19-135.21-10.44-66.65,11.79-114.29,45.24-157.37,78.49A507.78,507.78,0,0,0,221.56,1080h92.3a427.53,427.53,0,0,1,69.06-67c38.64-29.82,74.71-55.23,124.8-64.09,32.66-5.78,53.73-2.15,105.61,9.7l.55.13c11.52,2.63,24.59,5.62,38.63,8.49,191,39,351.08,11.32,468-8.88l5-.86c141.3-24.41,208.56-64.4,262.59-96.54l1.88-1.11c35.83-21.32,61.73-36.72,124.52-49.13,74-14.63,151.72-14.92,231.12-.87A763.66,763.66,0,0,1,1920,863.36v-81a833.27,833.27,0,0,0-161.44-46C1670,720.71,1583,721.09,1500,737.51Z"/><path class="cls-1" d="M200.54,51.41c39.12-2.24,74.94-10.65,106.47-25,1.86-.85,3.39-1.52,4.69-2.09,7.06-3.11,7.06-3.11,15.51-11.41,1.86-1.83,4.14-4.06,7-6.81L340.5,0H.09A289.06,289.06,0,0,0,70.45,37.37C76.5,39.21,131.77,55.33,200.54,51.41Z"/><path class="cls-2" d="M1558.42,1033.07c-24.71,4.89-26.87,6.18-47.53,18.55l-7,4.16c-13.57,8.07-27.5,16.18-42.1,24.22h2.07c14-7.76,27.46-15.58,40.55-23.36l7-4.16c20.51-12.29,22.66-13.57,47.21-18.43,46.19-9.13,95.74-9.14,147.27,0,61.59,10.9,112.22,32.41,139.86,46h2.45a533.34,533.34,0,0,0-142.14-47C1654.42,1023.91,1604.74,1023.92,1558.42,1033.07Z"/><path class="cls-2" d="M1908.61,1026.86c-8.26-5-83.79-49.54-189.38-68.23-60.9-10.77-119.93-10.67-175.46.31-37.37,7.39-46.55,12.86-73.79,29.1l-4.67,2.78c-43,25.55-102.23,60.79-199,89.18h3.55c95-28.25,153.45-63,196-88.32l4.68-2.78c27.12-16.18,36.26-21.63,73.46-29,55.41-11,114.32-11.06,175.1-.3,105.41,18.65,180.78,63.09,189,68.09l.5.31q5.81,3.75,11.41,7.62v-1.22q-5.36-3.68-10.88-7.25Z"/><path class="cls-2" d="M1529.11,884.8c-50.07,9.9-67.57,20.32-99.34,39.23l-3.09,1.84c-56.25,33.45-133.29,79.27-288.36,106l-6.83,1.19c-122,21.09-289.06,50-494.09,8.13-14.9-3-28.86-6.23-40.07-8.79l-.83-.19c-50.36-11.51-58.73-12-75.61-9-30.33,5.37-54.71,20.89-91.8,49.51q-4.57,3.53-9,7.21h1.58q4-3.27,8.05-6.42c37-28.52,61.24-44,91.37-49.31,16.71-3,25-2.51,75.2,9l.84.19c11.22,2.57,25.18,5.76,40.09,8.8,90.79,18.53,182.21,24.87,279.49,19.38,83.06-4.7,156.2-17.34,215-27.51l6.83-1.18c155.25-26.81,232.38-72.68,288.7-106.17l3.09-1.84c31.68-18.86,49.12-29.24,99-39.11,64.63-12.77,132.9-13,202.93-.58A681.48,681.48,0,0,1,1920,948.05v-1.13a683.38,683.38,0,0,0-187.6-62.7C1662.25,871.8,1593.85,872,1529.11,884.8Z"/><path class="cls-2" d="M1514.45,810.67c-62.79,12.41-88.69,27.81-124.52,49.13l-1.88,1.11c-54,32.14-121.29,72.13-262.59,96.54l-5,.86c-116.89,20.2-277,47.86-468,8.88-14-2.87-27.11-5.86-38.63-8.49l-.55-.13c-51.88-11.85-73-15.48-105.61-9.7-50.09,8.86-86.16,34.27-124.8,64.09a427.53,427.53,0,0,0-69.06,67h1.29a426.15,426.15,0,0,1,68.38-66.24C422.07,984,458,958.68,507.9,949.85c32.47-5.75,53.47-2.12,105.21,9.7l.55.12c11.53,2.64,24.6,5.63,38.65,8.5A982.7,982.7,0,0,0,850,987.84c105.43,0,196.7-15.77,270.66-28.55l5-.86C1267.12,934,1334.46,894,1388.57,861.77l1.87-1.11c35.75-21.27,61.58-36.63,124.21-49,73.83-14.6,151.47-14.89,230.74-.86A762.12,762.12,0,0,1,1920,864.46v-1.1a763.66,763.66,0,0,0-174.43-53.56C1666.17,795.75,1588.41,796,1514.45,810.67Z"/><path class="cls-2" d="M1499.8,736.53c-75.55,14.93-109.82,35.31-149.5,58.91l-.87.52c-51.23,30.46-109.28,65-236.83,87l-2.74.47c-118.18,20.41-265.27,45.82-442.23,9.69-13.12-2.68-25.84-5.58-37.06-8.14l-.41-.1c-54.26-12.4-87.31-19-135.61-10.45-66.87,11.84-114.62,45.36-157.8,78.69a507.6,507.6,0,0,0-101.16,104.78q-7.8,10.8-15.13,22.08h1.1a507.78,507.78,0,0,1,115.8-126.07c43.08-33.25,90.72-66.7,157.37-78.49,48.1-8.52,81.07-1.93,135.21,10.44l.41.09c11.22,2.56,23.95,5.47,37.08,8.15,177.15,36.16,324.33,10.74,442.6-9.69l2.74-.47c127.73-22.06,185.87-56.63,237.17-87.14l.87-.52c39.6-23.55,73.8-43.89,149.18-58.79,83-16.42,170-16.8,258.57-1.14a833.27,833.27,0,0,1,161.44,46v-1.07a833.44,833.44,0,0,0-161.26-45.92C1670.09,719.7,1583,720.08,1499.8,736.53Z"/><path class="cls-2" d="M1705.65,651.94c-75-7.16-149.21-3.64-220.51,10.45C1396.82,679.85,1355,704.7,1310.8,731c-47.83,28.44-97.28,57.85-211.07,77.5-119.06,20.56-254,43.86-417,10.59-12.29-2.51-24.22-5.24-35.76-7.87-51.36-11.74-99.88-22.82-165.61-11.19C390.63,816.1,328,864.43,290.58,893.31a583,583,0,0,0-116.24,120.34A626.05,626.05,0,0,0,132.52,1080h1.09c40.3-73.78,93.14-136.17,157.58-185.9C328.53,865.28,391,817,481.56,801c65.52-11.59,113.94-.53,165.21,11.18,11.54,2.64,23.48,5.37,35.78,7.88a830.43,830.43,0,0,0,167.28,16.73c91.9,0,174.22-14.22,250.08-27.32,114-19.68,163.5-49.14,211.4-77.62,44.16-26.27,85.87-51.07,174-68.5,130-25.69,265.51-16.45,402.8,27.47q16.55,5.29,31.87,10.85v-1.06q-15.18-5.48-31.57-10.74A873.69,873.69,0,0,0,1705.65,651.94Z"/><path class="cls-2" d="M178.8,53c7.08,0,14.36-.19,21.8-.62,39.24-2.24,75.18-10.68,106.82-25.09l4.68-2.09c7.23-3.18,7.23-3.18,15.81-11.6,1.86-1.83,4.13-4.06,7-6.81L341.94,0H340.5l-6.31,6.09c-2.84,2.75-5.12,5-7,6.81-8.45,8.3-8.45,8.3-15.51,11.41-1.3.57-2.83,1.24-4.69,2.09-31.53,14.36-67.35,22.77-106.47,25-68.77,3.92-124-12.2-130.09-14A289.06,289.06,0,0,1,.09,0H0V1.17A290.2,290.2,0,0,0,70.13,38.32C75.57,40,120.26,53,178.8,53Z"/><path class="cls-2" d="M179.07,128.58c8.39,0,17-.23,25.83-.73,48.63-2.77,93.66-13.46,133.84-31.76,23.88-10.88,27.41-14.3,44.37-30.78l4.31-4.18C405.35,43.8,427,22.86,456,0h-1.61c-28.55,22.58-49.94,43.26-67.68,60.41l-4.31,4.18C365.56,81,362.05,84.38,338.33,95.18c-40.08,18.25-85,28.91-133.48,31.67-86.68,5-155.62-16.91-158.5-17.84A353.61,353.61,0,0,1,0,88.63v1.13A355.79,355.79,0,0,0,46,110C48.64,110.8,104.7,128.58,179.07,128.58Z"/><path class="cls-2" d="M22.65,181.82c7.74,2.51,71.63,22.33,156.37,22.33,9.8,0,19.89-.26,30.19-.85,58-3.31,112.12-16.24,160.85-38.44,35.64-16.23,45.52-25.8,67.17-46.77l2.73-2.63C472.86,83.64,515.18,42.72,593.24,0h-2.09C514,42.46,472,83.09,439.26,114.74l-2.72,2.63C415,138.26,405.13,147.79,369.65,164,321,186.1,267,199,209.15,202.3,110,208,31.57,183.66,23,180.87l-1.1-.36C14.39,177.87,7.12,175,0,172.07v1.08q10.52,4.38,21.54,8.3Z"/><path class="cls-2" d="M213.52,278.75c67.38-3.85,130.58-19,187.87-45.11,47.43-21.61,64.17-37.8,89.5-62.3l1.6-1.56C532.89,130.71,583.16,82.09,701,31.83l4.52-1.93c22.11-9.43,46.1-19.67,72-29.9h-2.72c-25.05,9.93-48.27,19.83-69.71,29l-4.52,1.93c-118,50.34-168.36,99-208.81,138.15l-1.61,1.56c-25.26,24.43-41.94,40.58-89.22,62.11-57.17,26-120.25,41.18-187.51,45C103.59,284,17.09,258.38,0,252.87v1c15.91,5.1,86.23,25.81,178.83,25.81C190.09,279.73,201.67,279.43,213.52,278.75Z"/><path class="cls-2" d="M217.83,354.2c76.75-4.38,149-21.81,214.88-51.79,59.26-27,83.5-50.44,111.58-77.59l.74-.72c37.79-36.55,80.63-78,185.62-122.76l2.52-1.07C829.53,59.16,949.44,8,1108,3.12c11.75-.36,23.12-.44,33.15-.52h.37c22.73-.17,41.1-.5,58.24-2.6h-9.78c-14.39,1.22-30,1.46-48.47,1.6h-.37c-10,.08-21.41.16-33.17.53C949.22,7,829.21,58.21,732.78,99.35l-2.52,1.07c-105.16,44.86-148.07,86.35-185.92,123l-.74.72c-28,27.09-52.21,50.49-111.31,77.4-65.71,29.93-137.89,47.32-214.52,51.7C121.26,358.71,40,342,0,331.49v1a723,723,0,0,0,179.37,22.77C191.86,355.29,204.71,355,217.83,354.2Z"/><path class="cls-2" d="M178.88,430.87a739.49,739.49,0,0,0,101-6.83c64.79-8.93,126.74-26.71,184.14-52.85,71.1-32.38,101.43-61.71,133.54-92.76,34.7-33.57,70.59-68.27,162.73-107.58,96.43-41.13,205.72-87.75,350-92.19,10.87-.33,21.49-.41,31.76-.49,45.73-.35,88.92-.67,142.11-23.62A316.2,316.2,0,0,0,1369,0h-1.52a314.77,314.77,0,0,1-83.75,53.63c-53,22.87-96.09,23.19-141.72,23.54-10.27.08-20.9.16-31.78.49-144.45,4.45-253.84,51.11-350.35,92.27-92.32,39.38-128.27,74.15-163,107.78-32,31-62.31,60.26-133.25,92.57C359,417.93,242.72,437.18,118,427.5A794.28,794.28,0,0,1,0,409.37v1a794.31,794.31,0,0,0,118,18.1Q148.58,430.88,178.88,430.87Z"/></svg>